<svg width="68" height="12" viewBox="0 0 68 12" fill="none" xmlns="http://www.w3.org/2000/svg">
<path d="M6.32279 0.887954C6.11862 0.790604 5.88141 0.790604 5.67723 0.887954C5.50072 0.972112 5.4034 1.11823 5.35433 1.19839C5.30359 1.28126 5.25151 1.38682 5.20075 1.48972L4.12288 3.67336L1.71185 4.02577C1.59836 4.04233 1.48191 4.05933 1.38745 4.08204C1.29607 4.10402 1.12711 4.15154 0.992657 4.29346C0.837112 4.45765 0.76396 4.68325 0.793571 4.90747C0.819166 5.10129 0.928088 5.23891 0.989188 5.31033C1.05235 5.38415 1.13667 5.46625 1.21885 5.54626L2.96275 7.24481L2.55127 9.64395C2.53184 9.75707 2.51192 9.87312 2.50424 9.97001C2.49682 10.0637 2.48965 10.2392 2.583 10.411C2.69098 10.6098 2.88292 10.7492 3.10535 10.7905C3.29766 10.8261 3.4623 10.7651 3.54912 10.729C3.63889 10.6918 3.7431 10.637 3.84468 10.5835L6.00001 9.45005L8.15535 10.5835C8.25693 10.637 8.36114 10.6918 8.45091 10.729C8.53773 10.7651 8.70237 10.8261 8.89467 10.7905C9.11711 10.7492 9.30904 10.6098 9.41702 10.411C9.51037 10.2392 9.5032 10.0637 9.49578 9.97001C9.48811 9.87312 9.46818 9.75708 9.44876 9.64397L9.03727 7.24481L10.7812 5.54624C10.8634 5.46623 10.9477 5.38414 11.0108 5.31033C11.0719 5.23891 11.1809 5.10129 11.2065 4.90747C11.2361 4.68325 11.1629 4.45765 11.0074 4.29346C10.8729 4.15154 10.704 4.10402 10.6126 4.08204C10.5181 4.05933 10.4017 4.04233 10.2882 4.02577L7.87714 3.67336L6.7993 1.48976C6.74853 1.38686 6.69644 1.28127 6.6457 1.19839C6.59662 1.11823 6.4993 0.972112 6.32279 0.887954Z" fill="#231F20"/>
<path d="M20.3228 0.887954C20.1186 0.790604 19.8814 0.790604 19.6772 0.887954C19.5007 0.972112 19.4034 1.11823 19.3543 1.19839C19.3036 1.28126 19.2515 1.38682 19.2007 1.48972L18.1229 3.67336L15.7119 4.02577C15.5984 4.04233 15.4819 4.05933 15.3874 4.08204C15.2961 4.10402 15.1271 4.15154 14.9927 4.29346C14.8371 4.45765 14.764 4.68325 14.7936 4.90747C14.8192 5.10129 14.9281 5.23891 14.9892 5.31033C15.0523 5.38415 15.1367 5.46625 15.2189 5.54626L16.9628 7.24481L16.5513 9.64395C16.5318 9.75707 16.5119 9.87312 16.5042 9.97001C16.4968 10.0637 16.4897 10.2392 16.583 10.411C16.691 10.6098 16.8829 10.7492 17.1054 10.7905C17.2977 10.8261 17.4623 10.7651 17.5491 10.729C17.6389 10.6918 17.7431 10.637 17.8447 10.5835L20 9.45005L22.1554 10.5835C22.2569 10.637 22.3611 10.6918 22.4509 10.729C22.5377 10.7651 22.7024 10.8261 22.8947 10.7905C23.1171 10.7492 23.309 10.6098 23.417 10.411C23.5104 10.2392 23.5032 10.0637 23.4958 9.97001C23.4881 9.87312 23.4682 9.75708 23.4488 9.64397L23.0373 7.24481L24.7812 5.54624C24.8634 5.46623 24.9477 5.38414 25.0108 5.31033C25.0719 5.23891 25.1809 5.10129 25.2065 4.90747C25.2361 4.68325 25.1629 4.45765 25.0074 4.29346C24.8729 4.15154 24.704 4.10402 24.6126 4.08204C24.5181 4.05933 24.4017 4.04233 24.2882 4.02577L21.8771 3.67336L20.7993 1.48976C20.7485 1.38686 20.6964 1.28127 20.6457 1.19839C20.5966 1.11823 20.4993 0.972112 20.3228 0.887954Z" fill="#231F20"/>
<path d="M34.3228 0.887954C34.1186 0.790604 33.8814 0.790604 33.6772 0.887954C33.5007 0.972112 33.4034 1.11823 33.3543 1.19839C33.3036 1.28126 33.2515 1.38682 33.2007 1.48972L32.1229 3.67336L29.7119 4.02577C29.5984 4.04233 29.4819 4.05933 29.3874 4.08204C29.2961 4.10402 29.1271 4.15154 28.9927 4.29346C28.8371 4.45765 28.764 4.68325 28.7936 4.90747C28.8192 5.10129 28.9281 5.23891 28.9892 5.31033C29.0523 5.38415 29.1367 5.46625 29.2189 5.54626L30.9628 7.24481L30.5513 9.64395C30.5318 9.75707 30.5119 9.87312 30.5042 9.97001C30.4968 10.0637 30.4897 10.2392 30.583 10.411C30.691 10.6098 30.8829 10.7492 31.1054 10.7905C31.2977 10.8261 31.4623 10.7651 31.5491 10.729C31.6389 10.6918 31.7431 10.637 31.8447 10.5835L34 9.45005L36.1554 10.5835C36.2569 10.637 36.3611 10.6918 36.4509 10.729C36.5377 10.7651 36.7024 10.8261 36.8947 10.7905C37.1171 10.7492 37.309 10.6098 37.417 10.411C37.5104 10.2392 37.5032 10.0637 37.4958 9.97001C37.4881 9.87312 37.4682 9.75708 37.4488 9.64397L37.0373 7.24481L38.7812 5.54624C38.8634 5.46623 38.9477 5.38414 39.0108 5.31033C39.0719 5.23891 39.1809 5.10129 39.2065 4.90747C39.2361 4.68325 39.1629 4.45765 39.0074 4.29346C38.8729 4.15154 38.704 4.10402 38.6126 4.08204C38.5181 4.05933 38.4017 4.04233 38.2882 4.02577L35.8771 3.67336L34.7993 1.48976C34.7485 1.38686 34.6964 1.28127 34.6457 1.19839C34.5966 1.11823 34.4993 0.972112 34.3228 0.887954Z" fill="#231F20"/>
<path d="M48.3228 0.887954C48.1186 0.790604 47.8814 0.790604 47.6772 0.887954C47.5007 0.972112 47.4034 1.11823 47.3543 1.19839C47.3036 1.28126 47.2515 1.38682 47.2007 1.48972L46.1229 3.67336L43.7119 4.02577C43.5984 4.04233 43.4819 4.05933 43.3874 4.08204C43.2961 4.10402 43.1271 4.15154 42.9927 4.29346C42.8371 4.45765 42.764 4.68325 42.7936 4.90747C42.8192 5.10129 42.9281 5.23891 42.9892 5.31033C43.0523 5.38415 43.1367 5.46625 43.2189 5.54626L44.9628 7.24481L44.5513 9.64395C44.5318 9.75707 44.5119 9.87312 44.5042 9.97001C44.4968 10.0637 44.4897 10.2392 44.583 10.411C44.691 10.6098 44.8829 10.7492 45.1054 10.7905C45.2977 10.8261 45.4623 10.7651 45.5491 10.729C45.6389 10.6918 45.7431 10.637 45.8447 10.5835L48 9.45005L50.1554 10.5835C50.2569 10.637 50.3611 10.6918 50.4509 10.729C50.5377 10.7651 50.7024 10.8261 50.8947 10.7905C51.1171 10.7492 51.309 10.6098 51.417 10.411C51.5104 10.2392 51.5032 10.0637 51.4958 9.97001C51.4881 9.87312 51.4682 9.75708 51.4488 9.64397L51.0373 7.24481L52.7812 5.54624C52.8634 5.46623 52.9477 5.38414 53.0108 5.31033C53.0719 5.23891 53.1809 5.10129 53.2065 4.90747C53.2361 4.68325 53.1629 4.45765 53.0074 4.29346C52.8729 4.15154 52.704 4.10402 52.6126 4.08204C52.5181 4.05933 52.4017 4.04233 52.2882 4.02577L49.8771 3.67336L48.7993 1.48976C48.7485 1.38686 48.6964 1.28127 48.6457 1.19839C48.5966 1.11823 48.4993 0.972112 48.3228 0.887954Z" fill="#231F20"/>
<path d="M56.8878 5.67721C56.7905 5.88138 56.7905 6.11859 56.8878 6.32277C56.972 6.49928 57.1181 6.5966 57.1983 6.64567C57.2811 6.69641 57.3867 6.74849 57.4896 6.79925L59.6732 7.87712L60.0256 10.2881C60.0422 10.4016 60.0592 10.5181 60.0819 10.6126C60.1039 10.7039 60.1514 10.8729 60.2933 11.0073C60.4575 11.1629 60.6831 11.236 60.9073 11.2064C61.1012 11.1808 61.2388 11.0719 61.3102 11.0108C61.384 10.9477 61.4661 10.8633 61.5461 10.7811L63.2447 9.03725L65.6438 9.44873C65.7569 9.46816 65.873 9.48808 65.9699 9.49576C66.0636 9.50318 66.239 9.51035 66.4109 9.417C66.6097 9.30902 66.7491 9.11708 66.7904 8.89465C66.826 8.70234 66.7649 8.5377 66.7289 8.45088C66.6917 8.36111 66.6368 8.2569 66.5834 8.15532L65.4499 5.99999L66.5834 3.84465C66.6368 3.74307 66.6917 3.63886 66.7289 3.54909C66.7649 3.46227 66.826 3.29763 66.7904 3.10533C66.7491 2.88289 66.6097 2.69096 66.4109 2.58298C66.239 2.48963 66.0636 2.4968 65.9699 2.50422C65.873 2.51189 65.757 2.53182 65.6438 2.55124L63.2447 2.96273L61.5461 1.21881C61.4661 1.13663 61.384 1.05232 61.3102 0.989164C61.2388 0.928063 61.1012 0.819141 60.9073 0.793546C60.6831 0.763936 60.4575 0.837087 60.2933 0.992633C60.1514 1.12709 60.1039 1.29604 60.0819 1.38742C60.0592 1.48188 60.0422 1.59834 60.0256 1.71183L59.6732 4.12286L57.4896 5.2007C57.3867 5.25147 57.2811 5.30356 57.1983 5.3543C57.1181 5.40338 56.972 5.5007 56.8878 5.67721Z" fill="url(#paint0_linear_1_2138)"/>
<defs>
<linearGradient id="paint0_linear_1_2138" x1="56.8148" y1="5.99999" x2="66.8012" y2="5.99999" gradientUnits="userSpaceOnUse">
<stop stop-color="#231F20"/>
<stop offset="0.35863" stop-color="#231F20"/>
<stop offset="0.35873" stop-color="#CFCFCF"/>
</linearGradient>
</defs>
</svg>
